<?xml version="1.0" encoding="UTF-8"?>
<svg id="Capa_2" data-name="Capa 2" xmlns="http://www.w3.org/2000/svg" viewBox="0 0 214.16 183.57">
  <defs>
    <style>
      .cls-1 {
        font-family: PPRightGrotesk-WideMedium, 'PP Right Grotesk';
        font-size: 28.69px;
        font-weight: 500;
      }

      .cls-1, .cls-2 {
        fill: #ea0029;
      }

      .cls-3 {
        fill: #fff;
      }
    </style>
  </defs>
  <g id="isotipo-color">
    <g>
      <path class="cls-2" d="m212.42,61.58c-3.93-13.71-14.13-24.77-29.32-32.14.15-.6.25-1.22.26-1.87.04-3.57-2.11-6.64-5.37-7.64-7.32-2.26-10.13-5.51-12.02-13.9-.8-3.57-3.71-5.99-7.23-6.03-.03-.01-.06-.01-.1-.01-3.47,0-6.39,2.34-7.28,5.85-2.1,8.35-4.99,11.53-12.38,13.61-.13.04-.25.1-.38.14-16.07-.44-33.24,1.81-50.29,6.7-27.49,7.88-51.6,21.74-67.89,39.03C3.15,83.66-3.48,103.78,1.74,121.99c3.93,13.71,14.13,24.77,29.32,32.13-.14.6-.25,1.22-.25,1.86-.04,3.56,2.11,6.63,5.36,7.63,7.34,2.27,10.15,5.52,12.04,13.92.8,3.56,3.7,5.99,7.22,6.03h.1c3.48,0,6.4-2.34,7.28-5.85,1.05-4.17,2.3-7.06,4.21-9.16,1.9-2.09,4.48-3.41,8.17-4.45.12-.04.24-.09.36-.14,1.32.04,2.64.06,3.97.06,14.91,0,30.68-2.26,46.34-6.75,27.49-7.88,51.6-21.74,67.89-39.03,17.27-18.33,23.9-38.45,18.68-56.66Zm-29.59,46.38c-14.47,15.36-36.17,27.75-61.1,34.9-15.83,4.54-31.67,6.59-46.36,6.11h0c-7.32-2.26-10.13-5.51-12.02-13.91-.8-3.56-3.71-5.99-7.23-6.03h-.09c-3.48,0-6.4,2.34-7.28,5.84-.99,3.93-2.16,6.7-3.89,8.76-15.35-5.4-25.44-14.4-28.7-25.78-3.7-12.92,1.68-27.92,15.17-42.24,14.47-15.36,36.17-27.75,61.1-34.9,14.35-4.11,28.7-6.19,42.19-6.19,1.4,0,2.78.03,4.16.07,7.32,2.26,10.14,5.51,12.03,13.92.8,3.56,3.7,5.98,7.22,6.03h.1c3.48,0,6.4-2.34,7.28-5.85.98-3.92,2.15-6.7,3.87-8.76,15.35,5.4,25.45,14.4,28.71,25.78,3.7,12.92-1.68,27.92-15.17,42.24Z"/>
      <g>
        <path class="cls-3" d="m158.58,12.95c-2.73,7.23-7,11.51-14.02,14.15,6.95,2.81,11.11,7.2,13.66,14.5,2.72-7.23,6.99-11.52,14.01-14.16-6.95-2.81-11.11-7.2-13.65-14.49Z"/>
        <path class="cls-3" d="m55.96,141.98c-2.73,7.22-7,11.51-14.02,14.14,6.95,2.82,11.11,7.21,13.66,14.5,2.72-7.23,6.99-11.51,14.01-14.15-6.95-2.81-11.11-7.2-13.65-14.49Z"/>
      </g>
      <text class="cls-1" transform="translate(196.58 38.02)"><tspan x="0" y="0">™</tspan></text>
    </g>
  </g>
</svg>