<?xml version="1.0" encoding="UTF-8"?>
<svg id="Capa_2" data-name="Capa 2" xmlns="http://www.w3.org/2000/svg" viewBox="0 0 679.1 79.14">
  <defs>
    <style>
      .cls-1, .cls-2 {
        fill: #ea0029;
      }

      .cls-2 {
        font-family: PPRightGrotesk-WideMedium, 'PP Right Grotesk';
        font-size: 28.69px;
        font-weight: 500;
      }
    </style>
  </defs>
  <g id="logotipo-2-color">
    <g id="Logotipo-1">
      <g>
        <path class="cls-1" d="m231.47,23.24h-51.79c-1.84,0-3.33,1.49-3.33,3.33v4.04c0,1.39-1.77,2.01-2.61.89-4.38-5.81-14-9.43-27.77-9.43-12.5,0-21.99,2.57-26.95,7.79-.92.97-2.55.36-2.55-.97v-2.29c0-1.86-1.5-3.36-3.36-3.36h-46.28c-1.86,0-3.36,1.5-3.36,3.36v26.89c0,.64-.37,1.28-.99,1.48-.69.22-1.37-.05-1.72-.58-1.03-1.24-2.36-2.24-3.99-3.04-.07-.03-.15-.07-.21-.1-.63-.34-1.06-1.01-1.06-1.77,0-.69.35-1.3.89-1.65.06-.04.12-.08.18-.11,3.5-2,5.19-5.47,5.19-10.49v-.19c0-9.31-5.83-13.8-17.9-13.8H3.39c-1.87,0-3.39,1.51-3.39,3.39v47.94c0,1.87,1.52,3.4,3.4,3.4h41.67c7.65,0,12.83-1.89,15.68-5.74.03-.04.06-.09.09-.12.36-.46,1-.69,1.66-.46.59.21.96.82.96,1.44v1.51c0,1.86,1.5,3.36,3.36,3.36h47.07c1.86,0,3.36-1.5,3.36-3.36v-1.32c0-1.26,1.46-1.92,2.41-1.11,5.31,4.55,14.51,6.97,26.15,6.97,19.75,0,32.25-6.84,32.25-19.15s-10.32-14.19-19.89-15.75l-9.62-1.57c-9.61-1.57-10.2-2.27-10.2-3.95,0-1.8,2.35-2.97,7.08-2.97,5,0,7.58,1.38,8.63,3.78.58,1.31,1.84,2.18,3.27,2.06l22.33-1.7c2.11-.16,4.22-.24,6.34-.24h4.11c1.86,0,3.36,1.5,3.36,3.36v31.62c0,1.84,1.49,3.33,3.33,3.33h17.59c1.83,0,3.32-1.49,3.32-3.32v-31.63c0-1.86,1.5-3.36,3.36-3.36h10.41c1.85,0,3.35-1.5,3.35-3.36v-9.69c0-1.86-1.5-3.36-3.36-3.36ZM24.23,38.18c0-.81.65-1.46,1.46-1.46h7.57c2.97,0,4.42,1.09,4.42,3.41v.15c0,2.3-1.45,3.4-4.42,3.4h-7.57c-.81,0-1.46-.65-1.46-1.46v-4.03Zm13.99,22.39c0,2.62-1.48,3.91-4.58,3.91h-7.95c-.81,0-1.46-.65-1.46-1.46v-4.82c0-.81.65-1.46,1.46-1.46h7.95c3.1,0,4.58,1.21,4.58,3.67v.15Zm104.47-2.38c9.61,1.64,11.37,2.35,11.37,4.41s-2.07,2.86-6.48,2.86-7.29-1.05-8.35-3.67c-.56-1.38-2.01-2.18-3.5-2.09l-18.29,1.1c-1.25.08-2.27.94-2.61,2.07-.19.59-.75,1.02-1.39,1.02h-22.13c-1.68,0-3.22-1.13-3.53-2.77-.43-2.24,1.26-4.19,3.41-4.19h20.33c1.86,0,3.36-1.5,3.36-3.35v-6.18c0-1.86-1.5-3.36-3.36-3.36h-20.23c-1.83,0-3.49-1.38-3.58-3.21-.08-1.93,1.45-3.52,3.36-3.52h22.67c.85,0,1.5.72,1.46,1.57-.02.3-.03.6-.03.9,0,10.4,8.32,15.13,17.9,16.77l9.62,1.64Z"/>
        <path class="cls-1" d="m645.91,23.24h-83.96c-1.87,0-3.4,1.52-3.4,3.4v5.87c0,.8-.64,1.45-1.45,1.45-.55,0-1.02-.3-1.27-.76-3.7-6.79-13.79-11.13-28.85-11.13s-26.78,4.11-29.9,12.47c-.34.79-1.11,1.34-2.02,1.34s-1.69-.55-2.02-1.34c-3.04-7.56-13.46-12.47-29.49-12.47-12.5,0-21.99,2.57-26.94,7.79-.93.97-2.55.36-2.55-.98v-2.24c0-1.87-1.52-3.4-3.4-3.4h-46.22c-1.87,0-3.4,1.52-3.4,3.4v4.83c0,.94-.77,1.7-1.71,1.7-.63,0-1.18-.34-1.48-.84-.03-.06-.07-.13-.09-.2-3.18-5.99-10.59-8.89-22.46-8.89h-34.72c-1.87,0-3.4,1.52-3.4,3.4v10.75c0,.73-.41,1.44-1.11,1.68-.93.33-1.82-.15-2.17-.92,0-.02,0-.03-.02-.04-4.19-10-14.42-14.86-30.98-14.86h-30.46c-1.87,0-3.39,1.51-3.39,3.39v47.94c0,1.87,1.52,3.4,3.4,3.4h30.45c16.55,0,26.78-4.86,30.97-14.85.02-.03.03-.06.04-.09.36-.77,1.26-1.22,2.19-.87.66.26,1.07.95,1.07,1.67v10.75c0,1.87,1.52,3.4,3.4,3.4h17.45c1.87,0,3.39-1.51,3.39-3.39v-12.81c0-1.35,1.09-2.44,2.44-2.44h2.64c4.19,0,5.32,1.44,6.18,6.13l.86,4.7c.47,2.6.85,4.25,1.26,5.46.46,1.41,1.75,2.36,3.23,2.36h73.41c1.87,0,3.4-1.52,3.4-3.4v-1.29c0-1.25,1.46-1.92,2.41-1.11,5.31,4.55,14.51,6.97,26.15,6.97,15.67,0,26.78-4.31,30.69-12.24.55-1.12,2.14-1.07,2.64.06,3.45,7.89,14.59,12.18,30.1,12.18,13.92,0,24.24-3.4,29.12-9.72.85-1.11,2.61-.5,2.61.89v4.26c0,1.87,1.52,3.4,3.4,3.4h83.96c22.36,0,33.19-8.87,33.19-27.29v-.15c0-18.41-10.83-27.29-33.19-27.29Zm-354.83,27.84c0,8.36-3.32,12.43-10.16,12.43h-6.16c-.81,0-1.46-.65-1.46-1.46v-22.88c0-.81.65-1.46,1.46-1.46h6.16c6.85,0,10.16,4.02,10.16,12.39v.98Zm63.98-9.04c0,3.99-1.92,4.77-5.83,4.77h-6.36c-.81,0-1.46-.65-1.46-1.46v-6.97c0-.81.65-1.46,1.46-1.46h6.36c3.91,0,5.83.82,5.83,4.96v.15Zm25.98,24.92c0,.86-.58,1.64-1.42,1.78-.89.15-1.69-.39-1.93-1.17-.02-.05-.03-.1-.04-.16l-1.14-4.41c-.85-3.32-2.12-5.17-4.08-6.33-.03-.02-.05-.03-.08-.04-.63-.34-1.05-1-1.05-1.76,0-.82.5-1.52,1.2-1.83.03-.02.07-.03.1-.04,2.32-1.02,4.05-2.5,5.2-4.52.34-.62,1.05-1.01,1.85-.87.82.15,1.37.93,1.37,1.76v17.6Zm84.11-1.5c-4.41,0-7.29-1.05-8.35-3.67-.56-1.38-2.01-2.18-3.5-2.09l-18.53,1.12c-1.05.07-1.9.74-2.26,1.64-.02.03-.03.07-.04.1-.05.1-.09.21-.16.31-.06.1-.13.2-.21.28-.15.17-.34.33-.53.45-.21.12-.43.21-.66.26-.08.02-.15.03-.24.03h-21.9c-2.03,0-3.65-1.74-3.47-3.79.16-1.83,1.81-3.16,3.65-3.16h20.15c1.86,0,3.36-1.5,3.36-3.35v-6.15c0-1.87-1.52-3.4-3.4-3.4h-20.23c-1.67,0-3.22-1.12-3.5-2.76-.37-2.12,1.26-3.96,3.31-3.96h22.68c.85,0,1.5.72,1.46,1.57-.02.3-.03.6-.03.9,0,10.4,8.32,15.13,17.9,16.77l9.62,1.64c9.61,1.64,11.37,2.35,11.37,4.41s-2.07,2.86-6.48,2.86Zm63.43,0c-4.41,0-7.29-1.05-8.35-3.67-.56-1.38-2.01-2.18-3.5-2.09l-17.47,1.05c-.12,0-.23.02-.35.02-1.72,0-3.14-1.24-3.4-2.86,0-.06-.02-.12-.03-.19-1.26-9.74-10.83-12.01-19.75-13.48l-9.62-1.57c-9.61-1.57-10.2-2.27-10.2-3.95,0-1.8,2.35-2.97,7.08-2.97,4.98,0,7.56,1.37,8.62,3.76.59,1.32,1.87,2.19,3.31,2.08l17.94-1.37c1.71-.13,3.27,1.04,3.59,2.73,1.53,8.21,9.08,12.13,17.62,13.6l9.61,1.64c9.62,1.64,11.38,2.35,11.38,4.41s-2.07,2.86-6.48,2.86Zm29.97-15.41c0,1.35-1.67,1.97-2.56.96-3.77-4.28-10.46-5.74-16.81-6.78l-9.62-1.57c-9.61-1.57-10.2-2.27-10.2-3.95,0-1.8,2.35-2.97,7.08-2.97,4.98,0,7.56,1.37,8.62,3.76.59,1.32,1.87,2.19,3.31,2.08l17.57-1.34c1.42-.1,2.62,1.01,2.62,2.43v7.36Zm53.5,12.38c0,.81-.65,1.46-1.46,1.46h-24.32c-2.03,0-3.65-1.73-3.47-3.79.16-1.83,1.81-3.16,3.65-3.16h20.11c1.87,0,3.39-1.51,3.39-3.39v-6.15c0-1.86-1.5-3.36-3.35-3.36h-20.24c-1.83,0-3.49-1.38-3.58-3.21-.09-1.93,1.45-3.52,3.36-3.52h24.44c.81,0,1.46.65,1.46,1.46v23.66Zm42.03-11.35c0,8.36-3.33,12.43-10.16,12.43h-6.17c-.81,0-1.46-.65-1.46-1.46v-22.88c0-.81.65-1.46,1.46-1.46h6.17c6.84,0,10.16,4.02,10.16,12.39v.98Z"/>
      </g>
      <text class="cls-2" transform="translate(657.15 24.16)"><tspan x="0" y="0">™</tspan></text>
    </g>
  </g>
</svg>